<svg width="18" height="20" viewBox="0 0 18 20" fill="none" xmlns="http://www.w3.org/2000/svg">
<path d="M12.6 11.875C11.4469 11.875 10.8924 12.5 9 12.5C7.10759 12.5 6.55714 11.875 5.4 11.875C2.41875 11.875 0 14.2266 0 17.125V18.125C0 19.1602 0.863839 20 1.92857 20H16.0714C17.1362 20 18 19.1602 18 18.125V17.125C18 14.2266 15.5813 11.875 12.6 11.875ZM16.0714 18.125H1.92857V17.125C1.92857 15.2656 3.4875 13.75 5.4 13.75C5.98661 13.75 6.93884 14.375 9 14.375C11.0772 14.375 12.0094 13.75 12.6 13.75C14.5125 13.75 16.0714 15.2656 16.0714 17.125V18.125ZM9 11.25C12.1942 11.25 14.7857 8.73047 14.7857 5.625C14.7857 2.51953 12.1942 0 9 0C5.8058 0 3.21429 2.51953 3.21429 5.625C3.21429 8.73047 5.8058 11.25 9 11.25ZM9 1.875C11.1254 1.875 12.8571 3.55859 12.8571 5.625C12.8571 7.69141 11.1254 9.375 9 9.375C6.87455 9.375 5.14286 7.69141 5.14286 5.625C5.14286 3.55859 6.87455 1.875 9 1.875Z" fill="#929299"/>
</svg>
