<svg width="20" height="20" viewBox="0 0 20 20" fill="none" xmlns="http://www.w3.org/2000/svg">
<path d="M18.25 16.5V9.20732C18.5388 9.30937 18.873 9.22693 19.079 8.97678C19.3423 8.65704 19.2965 8.18437 18.9768 7.92105L10.4768 0.921052C10.1999 0.692982 9.80017 0.692982 9.52323 0.921052L1.02323 7.92105C0.70349 8.18437 0.657748 8.65704 0.921067 8.97678C1.12707 9.22693 1.46121 9.30937 1.75001 9.20732V16.5C1.75001 18.0188 2.98123 19.25 4.50001 19.25H7.50001C7.91423 19.25 8.25001 18.9142 8.25001 18.5V12.5C8.25001 12.3619 8.36194 12.25 8.50001 12.25H11.5C11.6381 12.25 11.75 12.3619 11.75 12.5V18.5C11.75 18.9142 12.0858 19.25 12.5 19.25H15.5C17.0188 19.25 18.25 18.0188 18.25 16.5ZM13.25 17.75V12.5C13.25 11.5335 12.4665 10.75 11.5 10.75H8.50001C7.53352 10.75 6.75001 11.5335 6.75001 12.5V17.75H4.50001C3.80966 17.75 3.25001 17.1904 3.25001 16.5V8.03041L10 2.47159L16.75 8.03041V16.5C16.75 17.1904 16.1904 17.75 15.5 17.75H13.25Z" fill="#00C7BE" stroke="#00C7BE" stroke-width="0.5"/>
</svg>
