<svg width="23" height="23" viewBox="0 0 23 23" fill="none" xmlns="http://www.w3.org/2000/svg">
<path d="M8.525 7.90624C8.52438 8.5319 8.61445 9.15424 8.79229 9.75387L1.36679 17.1794L1.3375 17.2087V17.2501V21.5626V21.6626H1.4375H5.75H5.79142L5.82071 21.6333L13.2462 14.2078C14.1681 14.4814 15.139 14.5494 16.0904 14.4065C17.0618 14.2607 17.988 13.899 18.801 13.3479C19.614 12.7967 20.2931 12.0703 20.7883 11.2221C21.2833 10.374 21.5819 9.4257 21.6621 8.447C21.8093 6.88883 21.3808 5.33069 20.4575 4.06695C19.8456 3.21751 19.0396 2.52661 18.1065 2.05184C17.1734 1.57705 16.1404 1.33216 15.0935 1.33759C13.3514 1.33766 11.6808 2.02971 10.4489 3.26153C9.21709 4.49339 8.52503 6.16413 8.525 7.90624ZM8.525 7.90624L8.625 7.90634H8.525C8.525 7.90631 8.525 7.90627 8.525 7.90624ZM8.7567 16.3804L7.83554 15.4592L7.76483 15.3885L7.83554 15.3178L8.84898 14.3044L8.91893 14.2344L8.98963 14.3036L9.93237 15.2263L12.148 13.0106L12.759 12.3997L12.8014 12.3573L12.8588 12.3747L13.6852 12.6263L8.7567 16.3804ZM8.7567 16.3804L7.75531 17.3818L6.83415 16.4606L6.76344 16.3899L6.69273 16.4606L5.67929 17.4741L5.60858 17.5448L5.67929 17.6155L6.60045 18.5367L5.11202 20.0251H2.975V17.888L9.98946 10.852L9.98957 10.8519L10.6004 10.2411L10.6429 10.1986L10.6253 10.1412L10.4169 9.45839L10.4165 9.45728C10.0619 8.34191 10.1071 7.13777 10.5444 6.05214C10.9817 4.96673 11.7835 4.06767 12.812 3.5096C13.5527 3.12256 14.3796 2.93009 15.215 2.95028C16.0507 2.97048 16.8676 3.2028 17.5889 3.62541C18.3101 4.04803 18.9121 4.64707 19.3383 5.36625C19.7644 6.08543 20.0007 6.90114 20.025 7.73675L20.025 7.73675L20.0251 7.73874C20.074 8.7347 19.8053 9.72045 19.258 10.5539L19.2572 10.5551C18.8114 11.2552 18.1961 11.8314 17.4683 12.2304C16.7405 12.6294 15.9239 12.8382 15.0939 12.8376C14.6167 12.8357 14.1422 12.7645 13.6854 12.6263L8.7567 16.3804Z" fill="#858D9B" stroke="#929299" stroke-width="0.2"/>
<path d="M15.8125 8.625C16.6064 8.625 17.25 7.98141 17.25 7.1875C17.25 6.39359 16.6064 5.75 15.8125 5.75C15.0186 5.75 14.375 6.39359 14.375 7.1875C14.375 7.98141 15.0186 8.625 15.8125 8.625Z" fill="#858D9B"/>
</svg>
