<svg width="21" height="20" viewBox="0 0 21 20" fill="none" xmlns="http://www.w3.org/2000/svg">
<g clip-path="url(#clip0_1535_399)">
<path d="M-0.0977399 6.23427L-0.0977398 6.23421C-0.0952595 4.93243 0.71583 3.89195 1.95987 3.57616C2.19654 3.51522 2.43579 3.5006 2.67155 3.5006H2.67175C3.12909 3.5015 3.58674 3.50139 4.04463 3.50127C4.80812 3.50109 5.57232 3.5009 6.33704 3.50543C6.37487 3.50541 6.39931 3.5028 6.41522 3.49892C6.43008 3.49529 6.43244 3.49179 6.43148 3.49276L6.43146 3.49278C6.43145 3.49278 6.44379 3.47902 6.44263 3.39908L6.54262 3.39762M-0.0977399 6.23427L2.63564 19.9978C4.37846 19.9995 6.12128 19.9989 7.86409 19.9984C8.7355 19.9981 9.60691 19.9978 10.4783 19.9978C11.5325 19.9978 12.5862 19.9986 13.6401 19.9994C15.2212 20.0005 16.8026 20.0017 18.3856 20.0003C19.8771 19.9954 20.9999 18.8742 21.0023 17.3737C21.0074 14.7194 21.0064 12.0639 21.0054 9.40805C21.005 8.34537 21.0047 7.28264 21.0047 6.2199C21.0047 6.0121 20.9831 5.80671 20.9328 5.60615C20.6288 4.37624 19.6305 3.60784 18.333 3.60543C17.1049 3.60301 15.8767 3.6006 14.6486 3.60784C14.5002 3.60784 14.4595 3.56918 14.4619 3.41937C14.4715 2.81287 14.4691 2.20637 14.4643 1.59987C14.4547 0.715492 13.7605 0.00750568 12.8891 0.00508935M-0.0977399 6.23427C-0.101331 9.01261 -0.100882 11.7923 -0.100433 14.5713C-0.100284 15.4975 -0.100134 16.4236 -0.100134 17.3495C-0.100134 17.582 -0.0805732 17.8157 -0.0203568 18.0463C0.297565 19.2942 1.33843 20.0978 2.63555 20.0978M-0.0977399 6.23427L2.63555 20.0978M6.54262 3.39762L6.44263 3.39924C6.43303 2.80599 6.43544 2.21059 6.44023 1.61841C6.44023 1.6184 6.44023 1.6184 6.44023 1.61839L6.54022 1.6192M6.54262 3.39762C6.54501 3.56193 6.50192 3.60543 6.33673 3.60543L6.54022 1.6192M6.54262 3.39762C6.53304 2.80562 6.53543 2.2112 6.54022 1.6192M6.54022 1.6192C6.5474 0.710659 7.23448 0.00750568 8.13461 0.00508935M8.13461 0.00508935C9.71943 0.000256676 11.3042 0.000256676 12.8891 0.00508935M8.13461 0.00508935L8.13431 -0.0949102L12.8893 -0.0949103M8.13461 0.00508935L8.13435 -0.0949103C9.71934 -0.0997434 11.3043 -0.0997434 12.8893 -0.0949103M12.8891 0.00508935L12.8893 -0.0949103M12.8891 0.00508935L12.8893 -0.0949103M2.63555 20.0978C4.37842 20.0995 6.12134 20.0989 7.86419 20.0984C8.73559 20.0981 9.60697 20.0978 10.4783 20.0978C11.5323 20.0978 12.586 20.0986 13.6399 20.0994C15.2211 20.1005 16.8026 20.1017 18.3857 20.1003H18.386C19.9325 20.0952 21.0998 18.9294 21.1023 17.3739C21.1074 14.7195 21.1064 12.0638 21.1054 9.40792C21.105 8.34526 21.1047 7.28257 21.1047 6.2199C21.1047 6.00531 21.0824 5.79173 21.0299 5.58216C20.7145 4.30616 19.675 3.50793 18.3332 3.50543L18.333 3.50543C17.1051 3.50301 15.8767 3.5006 14.6483 3.50784C14.6147 3.50783 14.5934 3.50551 14.58 3.50227C14.5744 3.50091 14.5712 3.49964 14.5696 3.49888C14.5689 3.49734 14.5678 3.49435 14.5666 3.48916C14.5635 3.47605 14.5613 3.45492 14.5619 3.42097L14.5619 3.42095C14.5715 2.81322 14.5691 2.20576 14.5643 1.59908L14.5643 1.59879C14.5541 0.661853 13.8176 -0.0923214 12.8894 -0.0949102L2.63555 20.0978ZM19.7077 17.3954V17.3954V17.3953C19.7101 13.6645 19.7125 9.93379 19.7077 6.20312V6.20299C19.7077 5.46812 19.1489 4.91292 18.4251 4.90392C18.4251 4.90392 18.4251 4.90392 18.4251 4.90392L18.4263 4.80393C18.2637 4.80194 18.1007 4.80282 17.9376 4.8037L19.7077 17.3954ZM19.7077 17.3954C19.7077 18.1397 19.1517 18.6926 18.4111 18.6993L18.412 18.7993M19.7077 17.3954L17.133 18.5604C17.1331 18.665 17.1503 18.6862 17.1545 18.69C17.1599 18.695 17.1825 18.708 17.2806 18.7042C17.5258 18.6948 17.7733 18.6966 18.0182 18.6983C18.1503 18.6992 18.2816 18.7002 18.4113 18.6993L18.412 18.7993M7.92634 3.60543C7.75876 3.60784 7.72045 3.5571 7.72285 3.39521C7.73003 2.97106 7.72913 2.54556 7.72823 2.12074C7.72793 1.97923 7.72764 1.8378 7.72764 1.69652C7.72764 1.34374 7.86888 1.20359 8.22319 1.20359L7.92634 3.60543ZM7.92634 3.60543C8.5386 3.60025 9.15208 3.60124 9.76503 3.60222C10.0101 3.60262 10.2551 3.60301 10.4999 3.60301C10.7141 3.60301 10.9284 3.60271 11.1428 3.60241C11.7863 3.6015 12.4305 3.60059 13.0734 3.60784L7.92634 3.60543ZM18.412 18.7993C19.2068 18.7921 19.8077 18.1953 19.8077 17.3954M18.412 18.7993C18.2793 18.8002 18.1467 18.7992 18.014 18.7983C17.7708 18.7965 17.5276 18.7948 17.2844 18.8042L19.8077 17.3954M19.8077 17.3954C19.8101 13.6646 19.8125 9.93381 19.8077 6.20299V17.3954ZM3.77344 4.90147L3.77354 4.90146C3.80835 4.90037 3.83027 4.90221 3.84408 4.90527C3.85089 4.90677 3.85428 4.90825 3.85566 4.90899C3.85653 4.91046 3.85844 4.91435 3.86045 4.92254C3.86411 4.93745 3.86668 4.96074 3.86669 4.99708C3.86095 6.80854 3.86133 8.62159 3.86171 10.4335C3.86181 10.8864 3.8619 11.3392 3.8619 11.792C3.8619 12.2447 3.86181 12.6975 3.86171 13.1503C3.86133 14.9618 3.86095 16.7741 3.86669 18.5894L3.8667 18.5904C3.86726 18.6324 3.86469 18.6597 3.86053 18.6775C3.85856 18.6859 3.85655 18.6907 3.85525 18.6933L3.85391 18.6955L3.85357 18.696L3.85315 18.6963L3.85094 18.6975C3.84844 18.6987 3.84367 18.7005 3.83545 18.7023C3.81811 18.7059 3.79195 18.7077 3.75193 18.7066C3.52188 18.6995 3.28868 18.7008 3.05749 18.702C2.89739 18.7029 2.73826 18.7037 2.58182 18.7018C1.84648 18.6928 1.29207 18.138 1.29207 17.3906V17.3906C1.28967 13.6671 1.28967 9.94114 1.29207 6.21765C1.29437 5.46962 1.84691 4.91308 2.58389 4.90634L2.58419 4.90634C2.74262 4.9044 2.90449 4.90525 3.06746 4.90611C3.30285 4.90734 3.54053 4.90859 3.77344 4.90147ZM13.0748 3.50785L13.0745 3.50785C12.431 3.50059 11.7859 3.5015 11.1422 3.50241C10.9279 3.50271 10.7137 3.50301 10.4999 3.50301C10.2554 3.50301 10.0107 3.50262 9.76571 3.50222C9.15255 3.50124 8.53828 3.50025 7.92549 3.50543L7.9249 3.50544C7.887 3.50598 7.86318 3.5033 7.84832 3.49949C7.84134 3.49771 7.83755 3.49596 7.8358 3.495L7.83436 3.4941L7.83422 3.49399L7.83421 3.49397L7.83413 3.49387L7.83386 3.4935L7.83256 3.4911C7.83134 3.48848 7.82956 3.48373 7.82786 3.4758C7.82429 3.45911 7.82229 3.43427 7.82283 3.39682C7.83003 2.97166 7.82913 2.54483 7.82823 2.11979C7.82793 1.97846 7.82764 1.83733 7.82764 1.69652C7.82764 1.53 7.86159 1.43984 7.91305 1.38868C7.96466 1.33737 8.05565 1.30359 8.22319 1.30359H8.23211H8.24103H8.24995H8.25888H8.2678H8.27672H8.28564H8.29456H8.30348H8.31241H8.32133H8.33025H8.33917H8.34809H8.35702H8.36594H8.37486H8.38378H8.3927H8.40163H8.41055H8.41947H8.4284H8.43732H8.44624H8.45516H8.46409H8.47301H8.48193H8.49085H8.49978H8.5087H8.51762H8.52655H8.53547H8.54439H8.55332H8.56224H8.57116H8.58009H8.58901H8.59793H8.60686H8.61578H8.6247H8.63363H8.64255H8.65147H8.6604H8.66932H8.67825H8.68717H8.69609H8.70502H8.71394H8.72287H8.73179H8.74072H8.74964H8.75856H8.76749H8.77641H8.78534H8.79426H8.80319H8.81211H8.82104H8.82996H8.83889H8.84781H8.85674H8.86566H8.87459H8.88351H8.89244H8.90136H8.91029H8.91921H8.92814H8.93706H8.94599H8.95491H8.96384H8.97276H8.98169H8.99061H8.99954H9.00847H9.01739H9.02632H9.03524H9.04417H9.0531H9.06202H9.07095H9.07987H9.0888H9.09773H9.10665H9.11558H9.12451H9.13343H9.14236H9.15128H9.16021H9.16914H9.17806H9.18699H9.19592H9.20484H9.21377H9.2227H9.23162H9.24055H9.24948H9.2584H9.26733H9.27626H9.28518H9.29411H9.30304H9.31197H9.32089H9.32982H9.33875H9.34768H9.3566H9.36553H9.37446H9.38339H9.39231H9.40124H9.41017H9.4191H9.42802H9.43695H9.44588H9.45481H9.46373H9.47266H9.48159H9.49052H9.49945H9.50838H9.5173H9.52623H9.53516H9.54409H9.55302H9.56194H9.57087H9.5798H9.58873H9.59766H9.60659H9.61551H9.62444H9.63337H9.6423H9.65123H9.66016H9.66909H9.67802H9.68694H9.69587H9.7048H9.71373H9.72266H9.73159H9.74052H9.74945H9.75838H9.76731H9.77624H9.78516H9.79409H9.80302H9.81195H9.82088H9.82981H9.83874H9.84767H9.8566H9.86553H9.87446H9.88339H9.89232H9.90125H9.91018H9.91911H9.92804H9.93697H9.9459H9.95483H9.96376H9.97269H9.98162H9.99055H9.99948H10.0084H10.0173H10.0263H10.0352H10.0441H10.0531H10.062H10.0709H10.0798H10.0888H10.0977H10.1066H10.1156H10.1245H10.1334H10.1424H10.1513H10.1602H10.1692H10.1781H10.187H10.1959H10.2049H10.2138H10.2227H10.2317H10.2406H10.2495H10.2585H10.2674H10.2763H10.2853H10.2942H10.3031H10.3121H10.321H10.3299H10.3388H10.3478H10.3567H10.3656H10.3746H10.3835H10.3924H10.4014H10.4103H10.4192H10.4282H10.4371H10.446H10.455H10.4639H10.4728H10.4817H10.4907H10.4996H10.5085H10.5175H10.5264H10.5353H10.5443H10.5532H10.5621H10.5711H10.58H10.5889H10.5979H10.6068H10.6157H10.6247H10.6336H10.6425H10.6515H10.6604H10.6693H10.6783H10.6872H10.6961H10.7051H10.714H10.7229H10.7318H10.7408H10.7497H10.7586H10.7676H10.7765H10.7854H10.7944H10.8033H10.8122H10.8212H10.8301H10.839H10.848H10.8569H10.8658H10.8748H10.8837H10.8926H10.9016H10.9105H10.9194H10.9284H10.9373H10.9462H10.9552H10.9641H10.973H10.982H10.9909H10.9998H11.0088H11.0177H11.0266H11.0356H11.0445H11.0534H11.0624H11.0713H11.0802H11.0892H11.0981H11.107H11.116H11.1249H11.1338H11.1428H11.1517H11.1606H11.1696H11.1785H11.1874H11.1964H11.2053H11.2142H11.2232H11.2321H11.241H11.25H11.2589H11.2678H11.2768H11.2857H11.2946H11.3036H11.3125H11.3214H11.3304H11.3393H11.3482H11.3572H11.3661H11.375H11.384H11.3929H11.4018H11.4108H11.4197H11.4286H11.4376H11.4465H11.4555H11.4644H11.4733H11.4823H11.4912H11.5001H11.5091H11.518H11.5269H11.5359H11.5448H11.5537H11.5627H11.5716H11.5805H11.5895H11.5984H11.6073H11.6163H11.6252H11.6341H11.6431H11.652H11.6609H11.6699H11.6788H11.6877H11.6967H11.7056H11.7145H11.7235H11.7324H11.7414H11.7503H11.7592H11.7682H11.7771H11.786H11.795H11.8039H11.8128H11.8218H11.8307H11.8396H11.8486H11.8575H11.8664H11.8754H11.8843H11.8932H11.9022H11.9111H11.92H11.929H11.9379H11.9469H11.9558H11.9647H11.9737H11.9826H11.9915H12.0005H12.0094H12.0183H12.0273H12.0362H12.0451H12.0541H12.063H12.0719H12.0809H12.0898H12.0987H12.1077H12.1166H12.1256H12.1345H12.1434H12.1524H12.1613H12.1702H12.1792H12.1881H12.197H12.206H12.2149H12.2238H12.2328H12.2417H12.2506H12.2596H12.2685H12.2774H12.2864H12.2953H12.3043H12.3132H12.3221H12.3311H12.34H12.3489H12.3579H12.3668H12.3757H12.3847H12.3936H12.4025H12.4115H12.4204H12.4293H12.4383H12.4472H12.4562H12.4651H12.474H12.483H12.4919H12.5008H12.5098H12.5187H12.5276H12.5366H12.5455H12.5544H12.5634H12.5723H12.5812H12.5902H12.5991H12.6081H12.617H12.6259H12.6349H12.6438H12.6527H12.6617H12.6706H12.6795H12.6885H12.6974H12.7063H12.7153H12.7242H12.7331H12.7421H12.751H12.76H12.7689H12.7778H12.7868H12.7953C12.945 1.30476 13.0335 1.3393 13.0856 1.39094C13.1375 1.44227 13.1721 1.52898 13.1721 1.67719L13.1721 1.67761C13.173 1.88452 13.1726 2.09218 13.1722 2.3002C13.1715 2.66539 13.1708 3.03168 13.1769 3.39688C13.1774 3.43455 13.1756 3.45977 13.172 3.47697C13.1704 3.48516 13.1686 3.49016 13.1673 3.49299L13.1659 3.49563L13.1655 3.49622L13.1653 3.49634L13.164 3.49721C13.1623 3.49814 13.1587 3.49989 13.1518 3.5017C13.137 3.50558 13.1132 3.5084 13.0748 3.50785ZM5.24692 18.5772C5.25267 16.7639 5.25229 14.9521 5.2519 13.1396C5.25181 12.6864 5.25171 12.2332 5.25171 11.7799C5.25171 11.3295 5.25181 10.8792 5.2519 10.4288C5.25229 8.62721 5.25267 6.82542 5.24692 5.02365C5.24694 4.93085 5.26268 4.91559 5.26385 4.91452C5.26449 4.91393 5.26942 4.90946 5.28797 4.90551C5.30739 4.90136 5.3353 4.8991 5.37661 4.8991C8.79531 4.90393 12.2164 4.90393 15.6351 4.8991C15.6749 4.8991 15.701 4.90149 15.7187 4.90547C15.727 4.90736 15.732 4.90931 15.7348 4.91066C15.7373 4.91188 15.7381 4.91266 15.7382 4.91277L15.7382 4.91278C15.7385 4.91304 15.7528 4.92718 15.7528 5.01646C15.748 9.53991 15.748 14.0658 15.7528 18.5892C15.7528 18.6315 15.7496 18.6581 15.7452 18.6748C15.7432 18.6827 15.7412 18.687 15.74 18.6891L15.7388 18.6909L15.7385 18.6913L15.7378 18.6918L15.7349 18.6933C15.7318 18.6947 15.7264 18.6966 15.7177 18.6984C15.6992 18.7022 15.6726 18.7042 15.6327 18.7042C12.214 18.6993 8.79291 18.6993 5.37421 18.7042C5.28427 18.7042 5.26655 18.6912 5.26368 18.6884C5.26175 18.6866 5.24694 18.6698 5.24692 18.5772Z" fill="#929299" stroke="#929299" stroke-width="0.2"/>
</g>
<defs>
<clipPath id="clip0_1535_399">
<rect width="21" height="20" fill="white"/>
</clipPath>
</defs>
</svg>
