<svg xmlns="http://www.w3.org/2000/svg" viewBox="0 0 133.64 180.53"><defs><style>.cls-1{fill:#57bfce;}</style></defs><g id="Layer_2" data-name="Layer 2"><g id="Layer_1-2" data-name="Layer 1"><path class="cls-1" d="M18.37,86.65l-3.73,5.74s-3.27.25-7.22-2.87a13.26,13.26,0,0,1-4.17-5.94l6.57-3.76A8.82,8.82,0,0,0,18.37,86.65Z"/><path class="cls-1" d="M133.64,66.81a47.74,47.74,0,0,1-2,12.6,89.64,89.64,0,0,1-3.4,9.85c-15,37.12-56.47,85.48-58.6,88l-2.85,3.32L64,177.21a1.29,1.29,0,0,0-.16-.17c-.18-.23-.37-.45-.57-.68l-.88-1-1.18-1.4-1.45-1.74L58,170.12l-1.92-2.36c-.71-.88-1.42-1.75-2.12-2.64s-1.54-1.93-2.3-2.9-1.65-2.09-2.48-3.14l-2.59-3.36-2.72-3.57c-.94-1.24-1.87-2.5-2.8-3.75s-1.93-2.6-2.88-3.91-2-2.7-2.92-4.06-2-2.78-3-4.18-2-2.85-2.95-4.29-2-2.91-2.93-4.37-1.93-3-2.88-4.45-1.9-3-2.82-4.48-1.84-3-2.74-4.52-1.77-3-2.62-4.53c-.65-1.14-1.28-2.28-1.91-3.42,0,0,0,0,0,0l-.26-.47a3.67,3.67,0,0,1-.36-1.59,3.74,3.74,0,0,1,3.75-3.73,3.69,3.69,0,0,1,3.24,1.9l.06.1c.59,1.08,1.18,2.16,1.8,3.23.88,1.56,1.78,3.1,2.7,4.65s1.87,3.1,2.83,4.64,1.94,3.08,2.93,4.63,2,3.06,3,4.58,2,3,3.06,4.51,2,3,3.06,4.43,2,2.88,3.08,4.32,2,2.79,3,4.17,2,2.68,3,4l2.89,3.83q1.38,1.81,2.78,3.62c.88,1.13,1.75,2.26,2.64,3.39s1.64,2.08,2.46,3.12l2.28,2.84,2.05,2.55c.61.73,1.2,1.47,1.81,2.2s1,1.24,1.53,1.85c9.53-11.45,40.36-49.7,53.39-79.67.9-2.05,1.71-4.07,2.41-6,2.21-6.07,3.49-11.64,3.49-16.42a58.84,58.84,0,0,0-5-23.82A60.12,60.12,0,0,0,115,32.32,59.27,59.27,0,0,0,7.53,66.81c0,4.87,1.33,10.57,3.61,16.77H3.25A53.76,53.76,0,0,1,0,66.81a66.82,66.82,0,0,1,133.64,0Z"/><path class="cls-1" d="M14.64,92.39H66.31l-1.47-5.74H12.72c.1.32.2.65.31,1C13.53,89.19,14.07,90.79,14.64,92.39Z"/><path class="cls-1" d="M78.91,66.27V83.14a21.27,21.27,0,0,1-24.18,0V53.58l15.6,8.18V86.62L72,86.27V62.63Z"/><path class="cls-1" d="M66.82,33.15c-16.67,0-30.18,13.26-30.18,29.62S50.15,92.39,66.82,92.39,97,79.13,97,62.77,83.49,33.15,66.82,33.15Zm0,52.88a23.26,23.26,0,1,1,23.7-23.26A23.48,23.48,0,0,1,66.82,86Z"/></g></g></svg>