<svg width="90" height="123" viewBox="0 0 90 123" fill="none" xmlns="http://www.w3.org/2000/svg">
<path d="M45.0161 1.92778e-06C20.1606 -0.00723592 0.00715677 20.3673 0 45.5044C0.121665 49.4056 0.862389 53.2633 2.18997 56.9257C2.73746 58.5108 3.70721 59.9149 4.99901 60.9717C7.65775 63.096 9.86203 62.9259 9.86203 62.9259H44.6618L44.6583 62.9186C44.7728 62.9223 44.8873 62.9259 45.0054 62.9259C56.2343 62.9259 65.3306 53.893 65.3306 42.7504C65.3306 31.6077 56.2308 22.5749 45.0054 22.5749C33.7764 22.5749 24.6801 31.6077 24.6801 42.7504C24.6801 49.4273 27.9508 55.3442 32.982 59.0174H12.3741C10.0409 59.0066 7.97622 57.6169 7.02079 55.5469C5.78267 51.8592 5.07057 48.4574 5.07057 45.5044C5.07057 32.4799 11.2862 20.2551 21.7602 12.6735C39.6879 -0.300362 64.6257 3.87949 77.4542 22.0103C79.0537 24.3011 80.4171 26.7475 81.5228 29.3205C83.7521 34.4341 84.8972 39.9602 84.8901 45.5442C84.8901 48.8012 84.0277 52.5938 82.5391 56.7303C82.0667 58.0439 81.5228 59.4191 80.9145 60.816C72.1367 81.2304 51.3749 107.283 44.9553 115.082C44.5974 114.666 44.3362 114.318 43.9247 113.822C43.5132 113.327 43.116 112.82 42.7045 112.324L41.3232 110.587L39.7881 108.651C39.237 107.942 38.7324 107.294 38.1313 106.527C37.5301 105.756 36.9468 104.989 36.3528 104.218C35.723 103.396 35.1004 102.575 34.4813 101.753L32.5347 99.1441C31.862 98.2466 31.1892 97.3599 30.5129 96.419C29.8402 95.4781 29.2211 94.5589 28.4911 93.5782C27.7611 92.5974 27.1313 91.6095 26.4156 90.636C25.7 89.6625 25.0702 88.6456 24.3545 87.6178C23.6388 86.59 22.9661 85.5803 22.2933 84.5453C21.6206 83.5103 20.9407 82.4825 20.2716 81.4258C19.606 80.3691 18.944 79.3196 18.2999 78.2737C17.6522 77.2242 17.0117 76.1675 16.3926 75.1144C15.7735 74.0613 15.1652 73.0082 14.5748 71.9479C14.1561 71.2205 13.7589 70.4822 13.3617 69.7475L13.3223 69.6788C12.8822 68.879 12.0448 68.3796 11.1395 68.3832C9.74752 68.3796 8.61675 69.5159 8.61317 70.9237C8.61317 71.3001 8.69548 71.6692 8.85651 72.0057L9.03185 72.3242C9.45767 73.1023 9.87992 73.8767 10.3201 74.6548C10.8926 75.6971 11.4795 76.7067 12.0842 77.7417C12.689 78.7767 13.3116 79.8118 13.9307 80.8214C14.5497 81.8311 15.1902 82.8842 15.8308 83.8722C16.4713 84.8602 17.1441 85.9096 17.7703 86.9049C18.3965 87.9001 19.105 88.8989 19.742 89.8832C20.3825 90.864 21.0552 91.8519 21.728 92.8037C22.4007 93.7591 23.1271 94.7254 23.7498 95.6518C24.3688 96.5783 25.0773 97.5264 25.7179 98.4167C26.3584 99.3105 27.0311 100.23 27.6573 101.08C28.2836 101.931 28.9098 102.788 29.5432 103.635L31.3753 106.067L33.118 108.354C33.6762 109.071 34.2774 109.831 34.7891 110.493C35.3008 111.155 35.8662 111.861 36.3385 112.469C36.8109 113.077 37.2868 113.667 37.7663 114.268L39.0581 115.874L40.2425 117.304L41.2194 118.491L42.0138 119.446L42.6078 120.127C42.7438 120.282 42.8691 120.434 42.9907 120.59C43.0301 120.626 43.0659 120.662 43.0981 120.706L44.9767 123L46.8948 120.738C48.3297 119.023 76.259 86.0797 86.3644 60.7979C87.2554 58.6085 88.0212 56.3684 88.6545 54.0885C89.4811 51.3019 89.9356 48.414 90 45.5044C90.0036 20.3746 69.8644 0.00362085 45.0161 1.92778e-06ZM29.6398 42.4536C29.8044 33.7067 36.9504 26.7475 45.5994 26.914C54.1338 27.0768 60.9685 34.1192 60.9685 42.7504C60.9077 48.5732 57.7766 53.6325 53.1498 56.3829V45.1352L48.4943 42.6563V58.214C48.1221 58.2936 47.75 58.366 47.3707 58.4203V42.0664L36.8645 36.4932V56.1042C32.4309 53.2308 29.5324 48.1679 29.6398 42.4536Z" fill="#949793"/>
</svg>
